<svg width="41" height="40" viewBox="0 0 41 40" fill="none" xmlns="http://www.w3.org/2000/svg">
<path d="M20.5 30L12.8875 19.25C11.6414 17.7788 10.839 15.9839 10.5737 14.0744C10.3083 12.1648 10.5909 10.2191 11.3886 8.46394C12.1863 6.70878 13.4662 5.21635 15.0793 4.16049C16.6924 3.10462 18.5723 2.52877 20.5 2.5C23.1721 2.52641 25.7249 3.61074 27.5993 5.51552C29.4736 7.42029 30.5166 9.99024 30.5 12.6625C30.501 14.9937 29.7073 17.2556 28.25 19.075L20.5 30ZM20.5 5C18.4898 5.02308 16.5709 5.84297 15.1647 7.27963C13.7585 8.71629 12.98 10.6523 13 12.6625C13.0094 14.4971 13.6694 16.2688 14.8625 17.6625L20.5 25.65L26.2875 17.5C27.3876 16.1268 27.9911 14.422 28 12.6625C28.02 10.6523 27.2414 8.71629 25.8352 7.27963C24.429 5.84297 22.5101 5.02308 20.5 5Z" fill="black"/>
<path d="M20.5 13.75C21.8807 13.75 23 12.6307 23 11.25C23 9.86929 21.8807 8.75 20.5 8.75C19.1193 8.75 18 9.86929 18 11.25C18 12.6307 19.1193 13.75 20.5 13.75Z" fill="black"/>
<path d="M35.5 15H33V17.5H35.5V35H5.5V17.5H8V15H5.5C4.83696 15 4.20107 15.2634 3.73223 15.7322C3.26339 16.2011 3 16.837 3 17.5V35C3 35.663 3.26339 36.2989 3.73223 36.7678C4.20107 37.2366 4.83696 37.5 5.5 37.5H35.5C36.163 37.5 36.7989 37.2366 37.2678 36.7678C37.7366 36.2989 38 35.663 38 35V17.5C38 16.837 37.7366 16.2011 37.2678 15.7322C36.7989 15.2634 36.163 15 35.5 15Z" fill="black"/>
</svg>
