<svg width="30" height="30" viewBox="0 0 30 30" fill="none" xmlns="http://www.w3.org/2000/svg">
<path d="M4.49602 10.4989C4.49622 9.55077 4.74149 8.61883 5.20804 7.79348C5.67459 6.96814 6.34656 6.2774 7.15876 5.78832C7.97096 5.29923 8.89579 5.02841 9.84351 5.00212C10.7912 4.97583 11.7297 5.19497 12.5677 5.63827C13.4058 6.08158 14.115 6.734 14.6266 7.53221C15.1382 8.33043 15.4347 9.24733 15.4875 10.1939C15.5403 11.1406 15.3474 12.0847 14.9277 12.9349C14.508 13.785 13.8756 14.5122 13.092 15.0459C14.7795 15.6648 16.2432 16.7746 17.2947 18.2324C18.3461 19.6902 18.9373 21.4293 18.992 23.2259C18.9897 23.4196 18.9126 23.6049 18.7769 23.7431C18.6411 23.8813 18.4572 23.9617 18.2636 23.9675C18.07 23.9733 17.8816 23.9041 17.7378 23.7742C17.594 23.6444 17.506 23.4641 17.492 23.2709C17.4325 21.3223 16.6166 19.4735 15.2172 18.1163C13.8178 16.759 11.945 16 9.99552 16C8.04607 16 6.17322 16.759 4.77385 18.1163C3.37448 19.4735 2.55857 21.3223 2.49902 23.2709C2.48901 23.4667 2.4027 23.6508 2.25858 23.7838C2.11446 23.9167 1.924 23.988 1.72799 23.9822C1.53199 23.9765 1.34603 23.8942 1.20996 23.753C1.07389 23.6118 0.99853 23.4229 1.00002 23.2269C1.05457 21.4301 1.64563 19.6908 2.69711 18.2328C3.74859 16.7748 5.21236 15.6649 6.90002 15.0459C6.1591 14.5412 5.55275 13.8632 5.13376 13.0707C4.71477 12.2782 4.49583 11.3953 4.49602 10.4989ZM9.99602 6.49885C8.93516 6.49885 7.91774 6.92028 7.16759 7.67043C6.41745 8.42057 5.99602 9.43799 5.99602 10.4989C5.99602 11.5597 6.41745 12.5771 7.16759 13.3273C7.91774 14.0774 8.93516 14.4989 9.99602 14.4989C11.0569 14.4989 12.0743 14.0774 12.8244 13.3273C13.5746 12.5771 13.996 11.5597 13.996 10.4989C13.996 9.43799 13.5746 8.42057 12.8244 7.67043C12.0743 6.92028 11.0569 6.49885 9.99602 6.49885ZM18.286 10.4989C18.1387 10.4989 17.994 10.5089 17.852 10.5289C17.7529 10.5466 17.6512 10.5442 17.553 10.5218C17.4548 10.4994 17.3621 10.4574 17.2805 10.3984C17.1989 10.3394 17.1299 10.2646 17.0779 10.1784C17.0258 10.0922 16.9916 9.99637 16.9774 9.89666C16.9631 9.79696 16.9691 9.6954 16.995 9.59806C17.0208 9.50072 17.066 9.40958 17.1279 9.33008C17.1897 9.25058 17.2669 9.18436 17.3549 9.13535C17.4429 9.08635 17.5399 9.05557 17.64 9.04485C18.6346 8.90106 19.6488 9.09205 20.5229 9.58778C21.397 10.0835 22.0815 10.8558 22.4686 11.7832C22.8557 12.7105 22.9235 13.7403 22.6613 14.7104C22.399 15.6805 21.8217 16.5358 21.02 17.1419C22.1984 17.6695 23.1989 18.5269 23.9009 19.6105C24.6029 20.6941 24.9762 21.9577 24.976 23.2489C24.976 23.4478 24.897 23.6385 24.7564 23.7792C24.6157 23.9198 24.4249 23.9989 24.226 23.9989C24.0271 23.9989 23.8363 23.9198 23.6957 23.7792C23.555 23.6385 23.476 23.4478 23.476 23.2489C23.4764 22.1329 23.117 21.0465 22.4513 20.1509C21.7855 19.2553 20.8488 18.5981 19.78 18.2769L19.246 18.1169V16.4409L19.656 16.2319C20.2638 15.924 20.75 15.4203 21.0363 14.8021C21.3226 14.1839 21.3922 13.4872 21.2339 12.8246C21.0755 12.162 20.6985 11.5721 20.1636 11.1501C19.6288 10.7281 18.9673 10.4987 18.286 10.4989Z" fill="black"/>
</svg>
