<svg width="39" height="39" viewBox="0 0 39 39" fill="none" xmlns="http://www.w3.org/2000/svg">
<path d="M19.4999 5.85002C18.7241 5.85002 17.9802 6.15819 17.4316 6.70674C16.8831 7.25528 16.5749 7.99927 16.5749 8.77502C16.5749 9.55078 16.8831 10.2948 17.4316 10.8433C17.9802 11.3919 18.7241 11.7 19.4999 11.7C20.2757 11.7 21.0196 11.3919 21.5682 10.8433C22.1167 10.2948 22.4249 9.55078 22.4249 8.77502C22.4249 7.99927 22.1167 7.25528 21.5682 6.70674C21.0196 6.15819 20.2757 5.85002 19.4999 5.85002ZM14.6249 8.77502C14.6249 7.48209 15.1385 6.24212 16.0528 5.32788C16.967 4.41364 18.207 3.90002 19.4999 3.90002C20.7928 3.90002 22.0328 4.41364 22.947 5.32788C23.8613 6.24212 24.3749 7.48209 24.3749 8.77502C24.3749 10.068 23.8613 11.3079 22.947 12.2222C22.0328 13.1364 20.7928 13.65 19.4999 13.65C18.207 13.65 16.967 13.1364 16.0528 12.2222C15.1385 11.3079 14.6249 10.068 14.6249 8.77502ZM30.2249 7.80002C29.7077 7.80002 29.2117 8.00547 28.846 8.37117C28.4803 8.73686 28.2749 9.23285 28.2749 9.75002C28.2749 10.2672 28.4803 10.7632 28.846 11.1289C29.2117 11.4946 29.7077 11.7 30.2249 11.7C30.7421 11.7 31.2381 11.4946 31.6038 11.1289C31.9695 10.7632 32.1749 10.2672 32.1749 9.75002C32.1749 9.23285 31.9695 8.73686 31.6038 8.37117C31.2381 8.00547 30.7421 7.80002 30.2249 7.80002ZM26.3249 9.75002C26.3249 8.71568 26.7358 7.7237 27.4672 6.99231C28.1986 6.26092 29.1906 5.85002 30.2249 5.85002C31.2592 5.85002 32.2512 6.26092 32.9826 6.99231C33.714 7.7237 34.1249 8.71568 34.1249 9.75002C34.1249 10.7844 33.714 11.7763 32.9826 12.5077C32.2512 13.2391 31.2592 13.65 30.2249 13.65C29.1906 13.65 28.1986 13.2391 27.4672 12.5077C26.7358 11.7763 26.3249 10.7844 26.3249 9.75002ZM6.8249 9.75002C6.8249 9.23285 7.03035 8.73686 7.39604 8.37117C7.76174 8.00547 8.25773 7.80002 8.7749 7.80002C9.29207 7.80002 9.78806 8.00547 10.1538 8.37117C10.5195 8.73686 10.7249 9.23285 10.7249 9.75002C10.7249 10.2672 10.5195 10.7632 10.1538 11.1289C9.78806 11.4946 9.29207 11.7 8.7749 11.7C8.25773 11.7 7.76174 11.4946 7.39604 11.1289C7.03035 10.7632 6.8249 10.2672 6.8249 9.75002ZM8.7749 5.85002C7.74056 5.85002 6.74858 6.26092 6.01719 6.99231C5.28579 7.7237 4.8749 8.71568 4.8749 9.75002C4.8749 10.7844 5.28579 11.7763 6.01719 12.5077C6.74858 13.2391 7.74056 13.65 8.7749 13.65C9.80925 13.65 10.8012 13.2391 11.5326 12.5077C12.264 11.7763 12.6749 10.7844 12.6749 9.75002C12.6749 8.71568 12.264 7.7237 11.5326 6.99231C10.8012 6.26092 9.80925 5.85002 8.7749 5.85002ZM9.9449 29.2461L9.7499 29.25C8.71556 29.25 7.72358 28.8391 6.99219 28.1077C6.26079 27.3763 5.8499 26.3844 5.8499 25.35V18.0375C5.8499 17.9082 5.90126 17.7842 5.99269 17.6928C6.08411 17.6014 6.20811 17.55 6.3374 17.55H9.7772C9.8552 16.8344 10.1087 16.1694 10.489 15.6H6.3374C4.9919 15.6 3.8999 16.692 3.8999 18.0375V25.35C3.89981 26.1849 4.0784 27.01 4.42368 27.7701C4.76895 28.5302 5.27291 29.2076 5.90168 29.7568C6.53046 30.3059 7.2695 30.7142 8.06913 30.954C8.86877 31.1939 9.71047 31.2598 10.5377 31.1474C10.2757 30.5355 10.0771 29.8984 9.9449 29.2461ZM28.4621 31.1474C28.7195 31.1825 28.9821 31.2 29.2499 31.2C30.8014 31.2 32.2894 30.5837 33.3865 29.4866C34.4836 28.3895 35.0999 26.9015 35.0999 25.35V18.0375C35.0999 16.692 34.0079 15.6 32.6624 15.6H28.5109C28.8931 16.1694 29.1446 16.8344 29.2226 17.55H32.6624C32.7917 17.55 32.9157 17.6014 33.0071 17.6928C33.0985 17.7842 33.1499 17.9082 33.1499 18.0375V25.35C33.15 25.8787 33.0427 26.4018 32.8344 26.8877C32.6261 27.3736 32.3211 27.8121 31.9381 28.1765C31.5551 28.5409 31.1021 28.8236 30.6064 29.0075C30.1108 29.1914 29.5829 29.2726 29.0549 29.2461C28.9227 29.8984 28.7241 30.5355 28.4621 31.1474ZM14.1374 15.6C12.7919 15.6 11.6999 16.692 11.6999 18.0375V27.3C11.6999 29.3687 12.5217 31.3527 13.9845 32.8155C15.4473 34.2782 17.4312 35.1 19.4999 35.1C21.5686 35.1 23.5526 34.2782 25.0153 32.8155C26.4781 31.3527 27.2999 29.3687 27.2999 27.3V18.0375C27.2999 16.692 26.2079 15.6 24.8624 15.6H14.1374ZM13.6499 18.0375C13.6499 17.9082 13.7013 17.7842 13.7927 17.6928C13.8841 17.6014 14.0081 17.55 14.1374 17.55H24.8624C24.9917 17.55 25.1157 17.6014 25.2071 17.6928C25.2985 17.7842 25.3499 17.9082 25.3499 18.0375V27.3C25.3499 28.8515 24.7336 30.3395 23.6365 31.4366C22.5394 32.5337 21.0514 33.15 19.4999 33.15C17.9484 33.15 16.4604 32.5337 15.3633 31.4366C14.2662 30.3395 13.6499 28.8515 13.6499 27.3V18.0375Z" fill="black"/>
</svg>
