<svg width="46" height="46" viewBox="0 0 46 46" fill="none" xmlns="http://www.w3.org/2000/svg">
<path d="M23 4.3125C12.696 4.3125 4.3125 12.696 4.3125 23C4.3125 33.304 12.696 41.6875 23 41.6875C33.304 41.6875 41.6875 33.304 41.6875 23C41.6875 12.696 33.304 4.3125 23 4.3125ZM23 7.1875C23.4859 7.1875 23.9631 7.21625 24.4375 7.25938V10.0625H21.5625L20.125 14.375H18.6875V15.8125H25.875L27.3125 17.25H28.75V18.6875L27.3125 20.125L21.5625 18.6875L15.8125 23V27.3125L18.6875 30.1875H23V33.7812L24.4375 37.375H25.875L30.1875 31.625V30.1875L31.625 27.3125V25.875H30.1875L28.75 23L30.1875 21.5625L32.3438 23L35.9375 21.5625V20.125H38.5379C38.7104 21.0594 38.8125 22.0168 38.8125 23C38.8125 31.7184 31.7184 38.8125 23 38.8125C14.2816 38.8125 7.1875 31.7184 7.1875 23C7.1875 14.2816 14.2816 7.1875 23 7.1875Z" fill="black"/>
</svg>
